<svg width="18" height="18" viewBox="0 0 18 18" fill="none" xmlns="http://www.w3.org/2000/svg">
<path d="M3.4059 6.53976L3.40595 6.53973L8.93218 2.52005C8.93224 2.52001 8.9323 2.51996 8.93237 2.51992C8.9694 2.49322 9.03086 2.49356 9.06699 2.51974C9.06702 2.51976 9.06705 2.51978 9.06708 2.5198L14.5945 6.53975L14.5945 6.53976C15.1749 6.96186 15.5 7.59465 15.5 8.2501V15.1026C15.5 15.2852 15.3271 15.5 15.0278 15.5H11.5278C11.2284 15.5 11.0556 15.2852 11.0556 15.1026V11.8718C11.0556 11.1621 10.4452 10.6538 9.77778 10.6538H8.22222C7.55479 10.6538 6.94444 11.1621 6.94444 11.8718V15.1026C6.94444 15.2852 6.77157 15.5 6.47222 15.5H2.97222C2.67287 15.5 2.5 15.2852 2.5 15.1026V8.25082C2.5 7.59505 2.82543 6.96189 3.4059 6.53976Z" fill="white" fill-opacity="0.6" stroke="black"/>
</svg>
